<?xml version="1.0" encoding="UTF-8"?>
<!DOCTYPE svg PUBLIC "-//W3C//DTD SVG 1.1//EN" "http://www.w3.org/Graphics/SVG/1.1/DTD/svg11.dtd">
<svg xmlns="http://www.w3.org/2000/svg" version="1.1" width="1024px" height="1024px" style="shape-rendering:geometricPrecision; text-rendering:geometricPrecision; image-rendering:optimizeQuality; fill-rule:evenodd; clip-rule:evenodd" xmlns:xlink="http://www.w3.org/1999/xlink">
<g><path style="opacity:1" fill="#faf7f3" d="M 216.5,347.5 C 218.854,347.838 221.187,348.338 223.5,349C 230.871,356.04 238.538,362.706 246.5,369C 276.415,399.249 306.582,429.083 337,458.5C 339.356,460.862 340.856,463.695 341.5,467C 340.372,471.13 337.705,473.464 333.5,474C 330.183,474.498 326.85,474.665 323.5,474.5C 323.667,510.835 323.5,547.168 323,583.5C 322.018,587.624 319.352,589.624 315,589.5C 294.52,588.695 274.02,588.195 253.5,588C 250.892,585.435 249.558,582.269 249.5,578.5C 250.687,552.509 250.687,526.509 249.5,500.5C 228.841,499.546 208.174,499.38 187.5,500C 187,500.5 186.5,501 186,501.5C 185.667,527.5 185.333,553.5 185,579.5C 185.135,582.938 183.968,585.772 181.5,588C 160.167,588.667 138.833,588.667 117.5,588C 115.508,587.426 114.008,586.259 113,584.5C 112.667,548.167 112.333,511.833 112,475.5C 110.041,473.571 107.708,473.237 105,474.5C 97.2218,474.723 93.5552,471.056 94,463.5C 130.453,426.048 167.953,389.548 206.5,354C 209.491,351.152 212.824,348.985 216.5,347.5 Z M 253.5,438.5 C 261.5,438.5 269.5,438.5 277.5,438.5C 277.428,446.893 277.595,455.226 278,463.5C 274.091,464.796 269.925,465.463 265.5,465.5C 261.075,465.463 256.909,464.796 253,463.5C 252.26,455.132 252.426,446.798 253.5,438.5 Z"/></g>
<g><path style="opacity:1" fill="#e28e23" d="M 241.5,369.5 C 264.142,393.142 287.476,416.142 311.5,438.5C 321.881,446.547 330.881,455.88 338.5,466.5C 338.547,468.038 337.88,469.038 336.5,469.5C 330.894,470.407 325.227,470.74 319.5,470.5C 319.168,508.337 319.502,546.004 320.5,583.5C 320.167,584.5 319.5,585.167 318.5,585.5C 297.431,584.828 276.264,584.161 255,583.5C 254.667,555.5 254.333,527.5 254,499.5C 253.578,497.574 252.411,496.574 250.5,496.5C 228.337,495.337 206.004,495.17 183.5,496C 183,496.5 182.5,497 182,497.5C 180.525,526.103 180.025,554.77 180.5,583.5C 159.5,583.5 138.5,583.5 117.5,583.5C 116.883,583.389 116.383,583.056 116,582.5C 115.836,544.762 115.336,507.762 114.5,471.5C 109.489,471.666 104.489,471.499 99.5,471C 96.7104,468.79 95.877,465.956 97,462.5C 105.439,453.221 114.605,444.888 124.5,437.5C 136.414,427.09 147.914,416.09 159,404.5C 159.464,403.906 159.631,403.239 159.5,402.5C 169.78,393.888 179.447,384.555 188.5,374.5C 193.996,368.171 199.996,362.337 206.5,357C 209.128,355.374 211.461,353.374 213.5,351C 216.998,349.033 220.332,349.367 223.5,352C 230.004,357.337 236.004,363.171 241.5,369.5 Z M 253.5,438.5 C 252.426,446.798 252.26,455.132 253,463.5C 256.909,464.796 261.075,465.463 265.5,465.5C 269.925,465.463 274.091,464.796 278,463.5C 277.595,455.226 277.428,446.893 277.5,438.5C 269.5,438.5 261.5,438.5 253.5,438.5 Z"/></g>
<g><path style="opacity:1" fill="#faf7f4" d="M 123.5,360.5 C 141.596,358.759 149.096,366.759 146,384.5C 140.449,393.419 132.615,396.253 122.5,393C 112.751,387.427 109.918,379.26 114,368.5C 116.795,365.189 119.961,362.523 123.5,360.5 Z"/></g>
<g><path style="opacity:1" fill="#e18a21" d="M 124.5,362.5 C 139.835,361.659 146.002,368.659 143,383.5C 138.979,390.067 133.146,392.567 125.5,391C 114.992,386.483 112.159,378.983 117,368.5C 119.114,365.879 121.614,363.879 124.5,362.5 Z"/></g>
<g><path style="opacity:1" fill="#faf7f3" d="M 309.5,365.5 C 322.857,363.83 330.857,369.496 333.5,382.5C 330.616,397.115 321.95,402.282 307.5,398C 296.455,390.357 294.789,381.024 302.5,370C 304.76,368.212 307.093,366.712 309.5,365.5 Z"/></g>
<g><path style="opacity:1" fill="#e18a21" d="M 310.5,367.5 C 325.837,366.661 332.004,373.661 329,388.5C 323.755,396.465 316.589,398.632 307.5,395C 300.136,389.054 298.636,381.888 303,373.5C 305.114,370.879 307.614,368.879 310.5,367.5 Z"/></g>
<g><path style="opacity:1" fill="#dd6e07" d="M 241.5,369.5 C 265.471,391.804 288.804,414.804 311.5,438.5C 287.476,416.142 264.142,393.142 241.5,369.5 Z"/></g>
<g><path style="opacity:1" fill="#dc6f06" d="M 188.5,374.5 C 179.447,384.555 169.78,393.888 159.5,402.5C 168.553,392.445 178.22,383.112 188.5,374.5 Z"/></g>
<g><path style="opacity:1" fill="#de7005" d="M 159.5,402.5 C 159.631,403.239 159.464,403.906 159,404.5C 147.914,416.09 136.414,427.09 124.5,437.5C 135.833,425.5 147.5,413.833 159.5,402.5 Z"/></g>
<g><path style="opacity:1" fill="#f6f6f6" d="M 615.5,414.5 C 625.506,414.334 635.506,414.5 645.5,415C 646.701,415.903 647.535,417.069 648,418.5C 648.333,444.5 648.667,470.5 649,496.5C 659.53,483.309 670.03,470.142 680.5,457C 693.076,456.179 705.576,456.345 718,457.5C 718.738,460.212 718.071,462.545 716,464.5C 704.225,478.766 693.058,493.432 682.5,508.5C 694.74,526.635 707.24,544.635 720,562.5C 720.743,564.441 720.576,566.274 719.5,568C 706.5,568.667 693.5,568.667 680.5,568C 670.123,552.746 659.623,537.58 649,522.5C 648.667,536.833 648.333,551.167 648,565.5C 647.167,566.333 646.333,567.167 645.5,568C 635.833,568.667 626.167,568.667 616.5,568C 615.667,567.167 614.833,566.333 614,565.5C 613.333,515.833 613.333,466.167 614,416.5C 614.717,415.956 615.217,415.289 615.5,414.5 Z"/></g>
<g><path style="opacity:1" fill="#f5f5f5" d="M 387.5,418.5 C 398.172,418.333 408.839,418.5 419.5,419C 420,419.5 420.5,420 421,420.5C 421.333,458.833 421.667,497.167 422,535.5C 441.47,536.172 460.97,536.839 480.5,537.5C 481.193,546.195 481.86,554.861 482.5,563.5C 481.926,565.059 481.26,566.559 480.5,568C 449.833,568.667 419.167,568.667 388.5,568C 387.667,567.167 386.833,566.333 386,565.5C 385.333,517.167 385.333,468.833 386,420.5C 386.717,419.956 387.217,419.289 387.5,418.5 Z"/></g>
<g><path style="opacity:1" fill="#dd7505" d="M 279.5,468.5 C 280.642,457.91 280.808,447.243 280,436.5C 270.244,435.349 260.411,435.182 250.5,436C 249.944,436.383 249.611,436.883 249.5,437.5C 248.475,437.103 248.308,436.437 249,435.5C 250.067,434.809 251.234,434.309 252.5,434C 261.5,433.333 270.5,433.333 279.5,434C 280,434.5 280.5,435 281,435.5C 281.167,441 281.333,446.5 281.5,452C 281.495,457.876 280.829,463.376 279.5,468.5 Z"/></g>
<g><path style="opacity:1" fill="#f9f6f3" d="M 279.5,468.5 C 269.584,468.819 259.75,468.486 250,467.5C 249.5,457.506 249.334,447.506 249.5,437.5C 249.611,436.883 249.944,436.383 250.5,436C 260.411,435.182 270.244,435.349 280,436.5C 280.808,447.243 280.642,457.91 279.5,468.5 Z M 253.5,438.5 C 252.426,446.798 252.26,455.132 253,463.5C 256.909,464.796 261.075,465.463 265.5,465.5C 269.925,465.463 274.091,464.796 278,463.5C 277.595,455.226 277.428,446.893 277.5,438.5C 269.5,438.5 261.5,438.5 253.5,438.5 Z"/></g>
<g><path style="opacity:1" fill="#f2f2f2" d="M 534.5,454.5 C 556.817,451.985 574.984,459.319 589,476.5C 597.549,490.968 600.549,506.635 598,523.5C 589.765,558.563 567.599,573.729 531.5,569C 509.881,564.049 496.048,550.882 490,529.5C 484.48,504.673 490.646,483.506 508.5,466C 512.204,463.148 516.204,460.815 520.5,459C 525.401,457.802 530.068,456.302 534.5,454.5 Z M 538.5,482.5 C 549.303,481.313 556.803,485.646 561,495.5C 562.297,500.986 563.464,506.486 564.5,512C 563.589,518.967 562.089,525.8 560,532.5C 551.44,544.148 541.44,545.481 530,536.5C 521.203,522.464 520.203,507.798 527,492.5C 529.794,487.866 533.627,484.533 538.5,482.5 Z"/></g>
<g><path style="opacity:1" fill="#f4f4f3" d="M 764.5,454.5 C 779.417,452.523 793.417,455.023 806.5,462C 814.769,467.702 819.602,475.535 821,485.5C 821.667,512.5 821.667,539.5 821,566.5C 820.5,567 820,567.5 819.5,568C 810.167,568.667 800.833,568.667 791.5,568C 789.9,566.392 788.567,564.559 787.5,562.5C 771.187,572.323 754.521,572.823 737.5,564C 722.729,549.637 720.563,533.47 731,515.5C 739.969,506.395 750.802,500.895 763.5,499C 771.159,498.5 778.826,498.334 786.5,498.5C 787.593,491.169 784.593,486.669 777.5,485C 763.383,483.126 750.383,485.96 738.5,493.5C 737.252,492.96 736.085,492.293 735,491.5C 734.168,482.482 734.335,473.482 735.5,464.5C 738.789,462.008 742.456,460.175 746.5,459C 752.737,457.815 758.737,456.315 764.5,454.5 Z M 775.5,521.5 C 779.5,521.5 783.5,521.5 787.5,521.5C 789.9,535.103 784.233,542.769 770.5,544.5C 764.071,544.411 760.071,541.244 758.5,535C 759.645,531.71 761.312,528.71 763.5,526C 767.503,524.151 771.503,522.651 775.5,521.5 Z"/></g>
<g><path style="opacity:1" fill="#f8f7f7" d="M 841.5,456.5 C 869.407,456.172 897.241,456.505 925,457.5C 925.945,466.935 925.611,476.268 924,485.5C 910.531,502.976 897.031,520.476 883.5,538C 897.927,538.033 912.26,538.7 926.5,540C 927.126,540.75 927.626,541.584 928,542.5C 928.667,550.167 928.667,557.833 928,565.5C 927.167,566.333 926.333,567.167 925.5,568C 896.261,568.828 867.095,568.662 838,567.5C 836.029,558.859 836.029,550.192 838,541.5C 853.302,523.572 868.135,505.239 882.5,486.5C 869.179,485.667 855.846,485.167 842.5,485C 842,484.5 841.5,484 841,483.5C 840.223,474.452 840.389,465.452 841.5,456.5 Z"/></g>
<g><path style="opacity:1" fill="#060603" d="M 843.5,458.5 C 870.167,458.5 896.833,458.5 923.5,458.5C 923.666,466.507 923.5,474.507 923,482.5C 909.667,499.833 896.333,517.167 883,534.5C 880.806,536.694 878.64,538.86 876.5,541C 892.83,541.5 909.163,541.667 925.5,541.5C 925.5,549.5 925.5,557.5 925.5,565.5C 896.833,565.5 868.167,565.5 839.5,565.5C 839.334,558.492 839.5,551.492 840,544.5C 856.5,524 873,503.5 889.5,483C 874.17,482.5 858.837,482.333 843.5,482.5C 843.5,474.5 843.5,466.5 843.5,458.5 Z"/></g>
<g><path style="opacity:1" fill="#060603" d="M 762.5,457.5 C 772.898,457.101 783.232,457.601 793.5,459C 808.427,463.261 816.927,473.095 819,488.5C 819.5,514.165 819.667,539.831 819.5,565.5C 810.5,565.5 801.5,565.5 792.5,565.5C 792.666,561.486 792.499,557.486 792,553.5C 786.494,561.176 778.994,565.676 769.5,567C 757.345,568.877 746.345,566.211 736.5,559C 726.311,546.918 724.811,533.751 732,519.5C 739.621,509.434 749.787,503.6 762.5,502C 771.792,500.769 781.126,500.269 790.5,500.5C 791.367,491.047 787.367,484.881 778.5,482C 764.013,480.231 750.513,483.064 738,490.5C 737.168,482.147 737.335,473.813 738.5,465.5C 746.307,461.891 754.307,459.224 762.5,457.5 Z M 775.5,521.5 C 771.503,522.651 767.503,524.151 763.5,526C 761.312,528.71 759.645,531.71 758.5,535C 760.071,541.244 764.071,544.411 770.5,544.5C 784.233,542.769 789.9,535.103 787.5,521.5C 783.5,521.5 779.5,521.5 775.5,521.5 Z"/></g>
<g><path style="opacity:1" fill="#090906" d="M 388.5,420.5 C 398.749,420.181 408.916,420.514 419,421.5C 419.5,460.832 419.667,500.165 419.5,539.5C 439.5,539.5 459.5,539.5 479.5,539.5C 479.5,548.167 479.5,556.833 479.5,565.5C 448.926,565.829 418.426,565.496 388,564.5C 387.172,516.429 387.339,468.429 388.5,420.5 Z"/></g>
<g><path style="opacity:1" fill="#da6400" d="M 117.5,583.5 C 133.833,584.167 150.167,584.833 166.5,585.5C 149.83,585.667 133.163,585.5 116.5,585C 116,584.5 115.5,584 115,583.5C 114.5,546.168 114.333,508.835 114.5,471.5C 115.336,507.762 115.836,544.762 116,582.5C 116.383,583.056 116.883,583.389 117.5,583.5 Z"/></g>
<g><path style="opacity:1" fill="#e07f21" d="M 250.5,496.5 C 228.497,496.333 206.497,496.5 184.5,497C 184,497.5 183.5,498 183,498.5C 182.667,526.833 182.333,555.167 182,583.5C 181.5,584 181,584.5 180.5,585C 175.845,585.499 171.179,585.666 166.5,585.5C 150.167,584.833 133.833,584.167 117.5,583.5C 138.5,583.5 159.5,583.5 180.5,583.5C 180.025,554.77 180.525,526.103 182,497.5C 182.5,497 183,496.5 183.5,496C 206.004,495.17 228.337,495.337 250.5,496.5 Z"/></g>
<g><path style="opacity:1" fill="#f9f9f9" d="M 197.5,514.5 C 210.837,514.333 224.171,514.5 237.5,515C 238.025,515.692 238.692,516.192 239.5,516.5C 240.666,539.493 240.833,562.493 240,585.5C 239.167,586.333 238.333,587.167 237.5,588C 224.833,588.667 212.167,588.667 199.5,588C 198.584,587.626 197.75,587.126 197,586.5C 196.178,562.428 196.344,538.428 197.5,514.5 Z"/></g>
<g><path style="opacity:1" fill="#060604" d="M 531.5,457.5 C 552.667,454.055 570.5,460.055 585,475.5C 597.973,495.364 599.973,516.364 591,538.5C 575.328,564.508 552.828,573.008 523.5,564C 503.302,555.123 492.469,539.623 491,517.5C 489.408,486.949 502.908,466.949 531.5,457.5 Z M 538.5,482.5 C 533.627,484.533 529.794,487.866 527,492.5C 520.203,507.798 521.203,522.464 530,536.5C 541.44,545.481 551.44,544.148 560,532.5C 562.089,525.8 563.589,518.967 564.5,512C 563.464,506.486 562.297,500.986 561,495.5C 556.803,485.646 549.303,481.313 538.5,482.5 Z"/></g>
<g><path style="opacity:1" fill="#f3f3f2" d="M 539.5,479.5 C 555.851,479.68 564.684,488.014 566,504.5C 567.554,516.178 565.554,527.178 560,537.5C 551.881,544.945 542.714,546.445 532.5,542C 525.663,536.496 521.83,529.33 521,520.5C 519.231,508.78 521.231,497.78 527,487.5C 530.586,483.714 534.753,481.047 539.5,479.5 Z M 538.5,482.5 C 533.627,484.533 529.794,487.866 527,492.5C 520.203,507.798 521.203,522.464 530,536.5C 541.44,545.481 551.44,544.148 560,532.5C 562.089,525.8 563.589,518.967 564.5,512C 563.464,506.486 562.297,500.986 561,495.5C 556.803,485.646 549.303,481.313 538.5,482.5 Z"/></g>
<g><path style="opacity:1" fill="#f4f4f3" d="M 771.5,519.5 C 777.833,519.5 784.167,519.5 790.5,519.5C 793.706,535.947 787.04,544.947 770.5,546.5C 761.798,547.127 757.131,543.127 756.5,534.5C 756.466,531.567 757.299,528.9 759,526.5C 762.739,523.219 766.905,520.885 771.5,519.5 Z M 775.5,521.5 C 771.503,522.651 767.503,524.151 763.5,526C 761.312,528.71 759.645,531.71 758.5,535C 760.071,541.244 764.071,544.411 770.5,544.5C 784.233,542.769 789.9,535.103 787.5,521.5C 783.5,521.5 779.5,521.5 775.5,521.5 Z"/></g>
<g><path style="opacity:1" fill="#060603" d="M 616.5,416.5 C 626.083,416.182 635.583,416.515 645,417.5C 645.333,446.833 645.667,476.167 646,505.5C 658.046,489.909 670.213,474.409 682.5,459C 693.833,458.333 705.167,458.333 716.5,459C 703.828,475.351 691.162,491.684 678.5,508C 691.429,527.266 704.763,546.266 718.5,565C 706.153,565.833 693.82,565.666 681.5,564.5C 669.471,546.97 657.637,529.303 646,511.5C 645.667,529.167 645.333,546.833 645,564.5C 635.583,565.485 626.083,565.818 616.5,565.5C 616.5,515.833 616.5,466.167 616.5,416.5 Z"/></g>
<g><path style="opacity:1" fill="#da5c00" d="M 336.5,469.5 C 336.389,470.117 336.056,470.617 335.5,471C 330.511,471.499 325.511,471.666 320.5,471.5C 320.5,508.833 320.5,546.167 320.5,583.5C 319.502,546.004 319.168,508.337 319.5,470.5C 325.227,470.74 330.894,470.407 336.5,469.5 Z"/></g>
<g><path style="opacity:1" fill="#de7808" d="M 250.5,496.5 C 252.411,496.574 253.578,497.574 254,499.5C 254.333,527.5 254.667,555.5 255,583.5C 276.264,584.161 297.431,584.828 318.5,585.5C 296.652,586.689 274.819,586.356 253,584.5C 252.667,555.833 252.333,527.167 252,498.5C 251.283,497.956 250.783,497.289 250.5,496.5 Z"/></g>
<g><path style="opacity:1" fill="#050603" d="M 198.5,517.5 C 211.5,517.5 224.5,517.5 237.5,517.5C 237.667,539.836 237.5,562.169 237,584.5C 230.744,585.157 224.411,585.49 218,585.5C 211.589,585.49 205.256,585.157 199,584.5C 198.5,562.169 198.333,539.836 198.5,517.5 Z"/></g>
<g><path style="opacity:1" fill="#faf7f4" d="M 412.5,613.5 C 576.078,610.748 739.411,615.248 902.5,627C 904.448,627.983 906.282,629.15 908,630.5C 911.753,637.033 910.587,642.867 904.5,648C 899.167,648.167 893.833,648.333 888.5,648.5C 844.201,645.957 799.868,644.123 755.5,643C 717.504,642.118 679.504,641.451 641.5,641C 521.498,640.489 401.498,640.489 281.5,641C 275.158,637.638 272.992,632.472 275,625.5C 276.5,622.667 278.667,620.5 281.5,619C 325.288,616.29 368.955,614.457 412.5,613.5 Z"/></g>
<g><path style="opacity:1" fill="#de7d26" d="M 610.5,616.5 C 539.167,617.833 467.833,617.833 396.5,616.5C 467.833,615.21 539.166,615.21 610.5,616.5 Z"/></g>
<g><path style="opacity:1" fill="#e18e24" d="M 375.5,617.5 C 382.313,616.509 389.313,616.175 396.5,616.5C 467.833,617.833 539.167,617.833 610.5,616.5C 641.011,616.919 671.345,617.919 701.5,619.5C 708.431,620.854 717.431,621.521 728.5,621.5C 733.678,621.499 738.678,621.166 743.5,620.5C 746.059,620.198 748.393,620.532 750.5,621.5C 756.926,622.878 765.426,623.545 776,623.5C 781.012,623.499 785.845,623.166 790.5,622.5C 799.017,622.732 807.35,623.399 815.5,624.5C 820.787,625.537 828.787,626.204 839.5,626.5C 842.355,626.497 845.022,626.164 847.5,625.5C 854.663,625.964 861.663,626.631 868.5,627.5C 879.31,629.039 890.31,630.206 901.5,631C 903.667,631.833 905.167,633.333 906,635.5C 906.126,638.063 906.293,640.396 906.5,642.5C 903.314,645.897 899.314,647.23 894.5,646.5C 870.007,645.193 845.673,643.859 821.5,642.5C 814.043,641.239 801.877,640.573 785,640.5C 778.657,640.5 772.491,640.834 766.5,641.5C 761.637,641.819 756.97,641.486 752.5,640.5C 756.846,640.666 761.179,640.499 765.5,640C 739.343,638.458 713.343,638.291 687.5,639.5C 586.17,638.595 484.837,638.262 383.5,638.5C 371.171,637.833 358.671,637.5 346,637.5C 325.647,637.37 305.48,638.037 285.5,639.5C 278.579,637.329 276.079,632.663 278,625.5C 279.637,623.19 281.804,621.69 284.5,621C 288.152,620.501 291.818,620.335 295.5,620.5C 297.81,621.164 300.31,621.497 303,621.5C 332.152,619.99 361.318,618.823 390.5,618C 385.511,617.501 380.511,617.334 375.5,617.5 Z"/></g>
<g><path style="opacity:1" fill="#dd7414" d="M 375.5,617.5 C 380.511,617.334 385.511,617.501 390.5,618C 361.318,618.823 332.152,619.99 303,621.5C 300.31,621.497 297.81,621.164 295.5,620.5C 322.126,618.77 348.793,617.77 375.5,617.5 Z"/></g>
<g><path style="opacity:1" fill="#da740c" d="M 701.5,619.5 C 715.506,619.62 729.506,619.954 743.5,620.5C 738.678,621.166 733.678,621.499 728.5,621.5C 717.431,621.521 708.431,620.854 701.5,619.5 Z"/></g>
<g><path style="opacity:1" fill="#da6f07" d="M 750.5,621.5 C 763.835,621.77 777.169,622.103 790.5,622.5C 785.845,623.166 781.012,623.499 776,623.5C 765.426,623.545 756.926,622.878 750.5,621.5 Z"/></g>
<g><path style="opacity:1" fill="#da6a03" d="M 815.5,624.5 C 826.175,624.623 836.841,624.957 847.5,625.5C 845.022,626.164 842.355,626.497 839.5,626.5C 828.787,626.204 820.787,625.537 815.5,624.5 Z"/></g>
<g><path style="opacity:1" fill="#da6d05" d="M 868.5,627.5 C 879.883,627.645 891.217,628.478 902.5,630C 907.338,632.985 908.672,637.152 906.5,642.5C 906.293,640.396 906.126,638.063 906,635.5C 905.167,633.333 903.667,631.833 901.5,631C 890.31,630.206 879.31,629.039 868.5,627.5 Z"/></g>
<g><path style="opacity:1" fill="#d86602" d="M 383.5,638.5 C 350.829,638.521 318.163,638.854 285.5,639.5C 305.48,638.037 325.647,637.37 346,637.5C 358.671,637.5 371.171,637.833 383.5,638.5 Z"/></g>
<g><path style="opacity:1" fill="#db720c" d="M 687.5,639.5 C 713.343,638.291 739.343,638.458 765.5,640C 761.179,640.499 756.846,640.666 752.5,640.5C 730.834,640.108 709.168,639.775 687.5,639.5 Z"/></g>
<g><path style="opacity:1" fill="#db6f0f" d="M 766.5,641.5 C 772.491,640.834 778.657,640.5 785,640.5C 801.877,640.573 814.043,641.239 821.5,642.5C 803.164,642.278 784.831,641.944 766.5,641.5 Z"/></g>
</svg>
